<svg id="visual" viewBox="0 0 1920 100" width="1920" height="100" xmlns="http://www.w3.org/2000/svg" xmlns:xlink="http://www.w3.org/1999/xlink" version="1.1"><path d="M0 68L29.2 69C58.3 70 116.7 72 174.8 74.2C233 76.3 291 78.7 349.2 77.5C407.3 76.3 465.7 71.7 523.8 71C582 70.3 640 73.7 698.2 72.5C756.3 71.3 814.7 65.7 872.8 63.7C931 61.7 989 63.3 1047.2 64.2C1105.3 65 1163.7 65 1221.8 65.5C1280 66 1338 67 1396.2 70.7C1454.3 74.3 1512.7 80.7 1570.8 82.8C1629 85 1687 83 1745.2 82.2C1803.3 81.3 1861.7 81.7 1890.8 81.8L1920 82L1920 0L1890.8 0C1861.7 0 1803.3 0 1745.2 0C1687 0 1629 0 1570.8 0C1512.7 0 1454.3 0 1396.2 0C1338 0 1280 0 1221.8 0C1163.7 0 1105.3 0 1047.2 0C989 0 931 0 872.8 0C814.7 0 756.3 0 698.2 0C640 0 582 0 523.8 0C465.7 0 407.3 0 349.2 0C291 0 233 0 174.8 0C116.7 0 58.3 0 29.2 0L0 0Z" fill="#ff6f61"></path><path d="M0 55L29.2 56.8C58.3 58.7 116.7 62.3 174.8 63.8C233 65.3 291 64.7 349.2 64.2C407.3 63.7 465.7 63.3 523.8 64.2C582 65 640 67 698.2 68.5C756.3 70 814.7 71 872.8 68.5C931 66 989 60 1047.2 56.7C1105.3 53.3 1163.7 52.7 1221.8 54.5C1280 56.3 1338 60.7 1396.2 63C1454.3 65.3 1512.7 65.7 1570.8 63.7C1629 61.7 1687 57.3 1745.2 55.7C1803.3 54 1861.7 55 1890.8 55.5L1920 56L1920 0L1890.8 0C1861.7 0 1803.3 0 1745.2 0C1687 0 1629 0 1570.8 0C1512.7 0 1454.3 0 1396.2 0C1338 0 1280 0 1221.8 0C1163.7 0 1105.3 0 1047.2 0C989 0 931 0 872.8 0C814.7 0 756.3 0 698.2 0C640 0 582 0 523.8 0C465.7 0 407.3 0 349.2 0C291 0 233 0 174.8 0C116.7 0 58.3 0 29.2 0L0 0Z" fill="#fe5d8d"></path><path d="M0 44L29.2 44.7C58.3 45.3 116.7 46.7 174.8 45.7C233 44.7 291 41.3 349.2 40.2C407.3 39 465.7 40 523.8 42C582 44 640 47 698.2 48.3C756.3 49.7 814.7 49.3 872.8 47C931 44.7 989 40.3 1047.2 40.5C1105.3 40.7 1163.7 45.3 1221.8 45.5C1280 45.7 1338 41.3 1396.2 42C1454.3 42.7 1512.7 48.3 1570.8 48.7C1629 49 1687 44 1745.2 42.8C1803.3 41.7 1861.7 44.3 1890.8 45.7L1920 47L1920 0L1890.8 0C1861.7 0 1803.3 0 1745.2 0C1687 0 1629 0 1570.8 0C1512.7 0 1454.3 0 1396.2 0C1338 0 1280 0 1221.8 0C1163.7 0 1105.3 0 1047.2 0C989 0 931 0 872.8 0C814.7 0 756.3 0 698.2 0C640 0 582 0 523.8 0C465.7 0 407.3 0 349.2 0C291 0 233 0 174.8 0C116.7 0 58.3 0 29.2 0L0 0Z" fill="#e35fbb"></path><path d="M0 24L29.2 26.2C58.3 28.3 116.7 32.7 174.8 32C233 31.3 291 25.7 349.2 22.5C407.3 19.3 465.7 18.7 523.8 21.7C582 24.7 640 31.3 698.2 32.7C756.3 34 814.7 30 872.8 29.7C931 29.3 989 32.7 1047.2 33.5C1105.3 34.3 1163.7 32.7 1221.8 29.8C1280 27 1338 23 1396.2 22.5C1454.3 22 1512.7 25 1570.8 26.2C1629 27.3 1687 26.7 1745.2 26.2C1803.3 25.7 1861.7 25.3 1890.8 25.2L1920 25L1920 0L1890.8 0C1861.7 0 1803.3 0 1745.2 0C1687 0 1629 0 1570.8 0C1512.7 0 1454.3 0 1396.2 0C1338 0 1280 0 1221.8 0C1163.7 0 1105.3 0 1047.2 0C989 0 931 0 872.8 0C814.7 0 756.3 0 698.2 0C640 0 582 0 523.8 0C465.7 0 407.3 0 349.2 0C291 0 233 0 174.8 0C116.7 0 58.3 0 29.2 0L0 0Z" fill="#ab70e1"></path><path d="M0 17L29.2 17.5C58.3 18 116.7 19 174.8 18C233 17 291 14 349.2 13.5C407.3 13 465.7 15 523.8 16.7C582 18.3 640 19.7 698.2 17.8C756.3 16 814.7 11 872.8 9.2C931 7.3 989 8.7 1047.2 9.7C1105.3 10.7 1163.7 11.3 1221.8 13.8C1280 16.3 1338 20.7 1396.2 20.7C1454.3 20.7 1512.7 16.3 1570.8 14.8C1629 13.3 1687 14.7 1745.2 16.5C1803.3 18.3 1861.7 20.7 1890.8 21.8L1920 23L1920 0L1890.8 0C1861.7 0 1803.3 0 1745.2 0C1687 0 1629 0 1570.8 0C1512.7 0 1454.3 0 1396.2 0C1338 0 1280 0 1221.8 0C1163.7 0 1105.3 0 1047.2 0C989 0 931 0 872.8 0C814.7 0 756.3 0 698.2 0C640 0 582 0 523.8 0C465.7 0 407.3 0 349.2 0C291 0 233 0 174.8 0C116.7 0 58.3 0 29.2 0L0 0Z" fill="#3b82f6"></path></svg>