<svg id="visual" viewBox="0 0 960 75" width="960" height="75" xmlns="http://www.w3.org/2000/svg" xmlns:xlink="http://www.w3.org/1999/xlink" version="1.1"><rect x="0" y="0" width="960" height="75" fill="#001220"></rect><path d="M0 61L10.7 62.2C21.3 63.3 42.7 65.7 64 64.8C85.3 64 106.7 60 128 58.5C149.3 57 170.7 58 192 55.2C213.3 52.3 234.7 45.7 256 46.5C277.3 47.3 298.7 55.7 320 57.8C341.3 60 362.7 56 384 52C405.3 48 426.7 44 448 46C469.3 48 490.7 56 512 57.5C533.3 59 554.7 54 576 49.3C597.3 44.7 618.7 40.3 640 41.8C661.3 43.3 682.7 50.7 704 54.8C725.3 59 746.7 60 768 57.7C789.3 55.3 810.7 49.7 832 47.8C853.3 46 874.7 48 896 48.7C917.3 49.3 938.7 48.7 949.3 48.3L960 48L960 0L949.3 0C938.7 0 917.3 0 896 0C874.7 0 853.3 0 832 0C810.7 0 789.3 0 768 0C746.7 0 725.3 0 704 0C682.7 0 661.3 0 640 0C618.7 0 597.3 0 576 0C554.7 0 533.3 0 512 0C490.7 0 469.3 0 448 0C426.7 0 405.3 0 384 0C362.7 0 341.3 0 320 0C298.7 0 277.3 0 256 0C234.7 0 213.3 0 192 0C170.7 0 149.3 0 128 0C106.7 0 85.3 0 64 0C42.7 0 21.3 0 10.7 0L0 0Z" fill="#58dabe"></path><path d="M0 55L10.7 55.7C21.3 56.3 42.7 57.7 64 53.3C85.3 49 106.7 39 128 34.7C149.3 30.3 170.7 31.7 192 33.2C213.3 34.7 234.7 36.3 256 38.8C277.3 41.3 298.7 44.7 320 47.2C341.3 49.7 362.7 51.3 384 48.3C405.3 45.3 426.7 37.7 448 35.3C469.3 33 490.7 36 512 36.3C533.3 36.7 554.7 34.3 576 37.3C597.3 40.3 618.7 48.7 640 51.8C661.3 55 682.7 53 704 49.2C725.3 45.3 746.7 39.7 768 40.5C789.3 41.3 810.7 48.7 832 48C853.3 47.3 874.7 38.7 896 34.5C917.3 30.3 938.7 30.7 949.3 30.8L960 31L960 0L949.3 0C938.7 0 917.3 0 896 0C874.7 0 853.3 0 832 0C810.7 0 789.3 0 768 0C746.7 0 725.3 0 704 0C682.7 0 661.3 0 640 0C618.7 0 597.3 0 576 0C554.7 0 533.3 0 512 0C490.7 0 469.3 0 448 0C426.7 0 405.3 0 384 0C362.7 0 341.3 0 320 0C298.7 0 277.3 0 256 0C234.7 0 213.3 0 192 0C170.7 0 149.3 0 128 0C106.7 0 85.3 0 64 0C42.7 0 21.3 0 10.7 0L0 0Z" fill="#00cae4"></path><path d="M0 25L10.7 26.5C21.3 28 42.7 31 64 33.3C85.3 35.7 106.7 37.3 128 37.3C149.3 37.3 170.7 35.7 192 32.3C213.3 29 234.7 24 256 22.7C277.3 21.3 298.7 23.7 320 26.5C341.3 29.3 362.7 32.7 384 34.3C405.3 36 426.7 36 448 37.2C469.3 38.3 490.7 40.7 512 40.5C533.3 40.3 554.7 37.7 576 35.5C597.3 33.3 618.7 31.7 640 30.3C661.3 29 682.7 28 704 29.8C725.3 31.7 746.7 36.3 768 35.5C789.3 34.7 810.7 28.3 832 28.2C853.3 28 874.7 34 896 35.7C917.3 37.3 938.7 34.7 949.3 33.3L960 32L960 0L949.3 0C938.7 0 917.3 0 896 0C874.7 0 853.3 0 832 0C810.7 0 789.3 0 768 0C746.7 0 725.3 0 704 0C682.7 0 661.3 0 640 0C618.7 0 597.3 0 576 0C554.7 0 533.3 0 512 0C490.7 0 469.3 0 448 0C426.7 0 405.3 0 384 0C362.7 0 341.3 0 320 0C298.7 0 277.3 0 256 0C234.7 0 213.3 0 192 0C170.7 0 149.3 0 128 0C106.7 0 85.3 0 64 0C42.7 0 21.3 0 10.7 0L0 0Z" fill="#00b1f9"></path><path d="M0 31L10.7 28.3C21.3 25.7 42.7 20.3 64 18.3C85.3 16.3 106.7 17.7 128 20.8C149.3 24 170.7 29 192 28.2C213.3 27.3 234.7 20.7 256 18.7C277.3 16.7 298.7 19.3 320 22.2C341.3 25 362.7 28 384 27C405.3 26 426.7 21 448 18.5C469.3 16 490.7 16 512 18.3C533.3 20.7 554.7 25.3 576 27.5C597.3 29.7 618.7 29.3 640 27.7C661.3 26 682.7 23 704 23.7C725.3 24.3 746.7 28.7 768 28.8C789.3 29 810.7 25 832 23.7C853.3 22.3 874.7 23.7 896 22C917.3 20.3 938.7 15.7 949.3 13.3L960 11L960 0L949.3 0C938.7 0 917.3 0 896 0C874.7 0 853.3 0 832 0C810.7 0 789.3 0 768 0C746.7 0 725.3 0 704 0C682.7 0 661.3 0 640 0C618.7 0 597.3 0 576 0C554.7 0 533.3 0 512 0C490.7 0 469.3 0 448 0C426.7 0 405.3 0 384 0C362.7 0 341.3 0 320 0C298.7 0 277.3 0 256 0C234.7 0 213.3 0 192 0C170.7 0 149.3 0 128 0C106.7 0 85.3 0 64 0C42.7 0 21.3 0 10.7 0L0 0Z" fill="#0090ff"></path><path d="M0 12L10.7 13.7C21.3 15.3 42.7 18.7 64 16.8C85.3 15 106.7 8 128 7.7C149.3 7.3 170.7 13.7 192 14.2C213.3 14.7 234.7 9.3 256 7.2C277.3 5 298.7 6 320 8C341.3 10 362.7 13 384 12.8C405.3 12.7 426.7 9.3 448 7.7C469.3 6 490.7 6 512 6.2C533.3 6.3 554.7 6.7 576 6C597.3 5.3 618.7 3.7 640 5.8C661.3 8 682.7 14 704 17.3C725.3 20.7 746.7 21.3 768 20.3C789.3 19.3 810.7 16.7 832 13.5C853.3 10.3 874.7 6.7 896 7C917.3 7.3 938.7 11.7 949.3 13.8L960 16L960 0L949.3 0C938.7 0 917.3 0 896 0C874.7 0 853.3 0 832 0C810.7 0 789.3 0 768 0C746.7 0 725.3 0 704 0C682.7 0 661.3 0 640 0C618.7 0 597.3 0 576 0C554.7 0 533.3 0 512 0C490.7 0 469.3 0 448 0C426.7 0 405.3 0 384 0C362.7 0 341.3 0 320 0C298.7 0 277.3 0 256 0C234.7 0 213.3 0 192 0C170.7 0 149.3 0 128 0C106.7 0 85.3 0 64 0C42.7 0 21.3 0 10.7 0L0 0Z" fill="#0066ff"></path></svg>