<svg id="visual" viewBox="0 0 1920 100" width="1920" height="100" xmlns="http://www.w3.org/2000/svg" xmlns:xlink="http://www.w3.org/1999/xlink" version="1.1"><path d="M0 82L29.2 82.8C58.3 83.7 116.7 85.3 174.8 83.3C233 81.3 291 75.7 349.2 74.8C407.3 74 465.7 78 523.8 77.8C582 77.7 640 73.3 698.2 74C756.3 74.7 814.7 80.3 872.8 82.7C931 85 989 84 1047.2 83.5C1105.3 83 1163.7 83 1221.8 81.5C1280 80 1338 77 1396.2 75.3C1454.3 73.7 1512.7 73.3 1570.8 72.8C1629 72.3 1687 71.7 1745.2 70.7C1803.3 69.7 1861.7 68.3 1890.8 67.7L1920 67L1920 0L1890.8 0C1861.7 0 1803.3 0 1745.2 0C1687 0 1629 0 1570.8 0C1512.7 0 1454.3 0 1396.2 0C1338 0 1280 0 1221.8 0C1163.7 0 1105.3 0 1047.2 0C989 0 931 0 872.8 0C814.7 0 756.3 0 698.2 0C640 0 582 0 523.8 0C465.7 0 407.3 0 349.2 0C291 0 233 0 174.8 0C116.7 0 58.3 0 29.2 0L0 0Z" fill="#58dabe"></path><path d="M0 46L29.2 46.7C58.3 47.3 116.7 48.7 174.8 52.7C233 56.7 291 63.3 349.2 64.8C407.3 66.3 465.7 62.7 523.8 61C582 59.3 640 59.7 698.2 59.3C756.3 59 814.7 58 872.8 56.7C931 55.3 989 53.7 1047.2 54.2C1105.3 54.7 1163.7 57.3 1221.8 59C1280 60.7 1338 61.3 1396.2 60.7C1454.3 60 1512.7 58 1570.8 57.7C1629 57.3 1687 58.7 1745.2 57.8C1803.3 57 1861.7 54 1890.8 52.5L1920 51L1920 0L1890.8 0C1861.7 0 1803.3 0 1745.2 0C1687 0 1629 0 1570.8 0C1512.7 0 1454.3 0 1396.2 0C1338 0 1280 0 1221.8 0C1163.7 0 1105.3 0 1047.2 0C989 0 931 0 872.8 0C814.7 0 756.3 0 698.2 0C640 0 582 0 523.8 0C465.7 0 407.3 0 349.2 0C291 0 233 0 174.8 0C116.7 0 58.3 0 29.2 0L0 0Z" fill="#00ccdd"></path><path d="M0 56L29.2 52.8C58.3 49.7 116.7 43.3 174.8 43C233 42.7 291 48.3 349.2 51C407.3 53.7 465.7 53.3 523.8 52.5C582 51.7 640 50.3 698.2 48.5C756.3 46.7 814.7 44.3 872.8 41.3C931 38.3 989 34.7 1047.2 36.2C1105.3 37.7 1163.7 44.3 1221.8 45.2C1280 46 1338 41 1396.2 38C1454.3 35 1512.7 34 1570.8 34.8C1629 35.7 1687 38.3 1745.2 40.7C1803.3 43 1861.7 45 1890.8 46L1920 47L1920 0L1890.8 0C1861.7 0 1803.3 0 1745.2 0C1687 0 1629 0 1570.8 0C1512.7 0 1454.3 0 1396.2 0C1338 0 1280 0 1221.8 0C1163.7 0 1105.3 0 1047.2 0C989 0 931 0 872.8 0C814.7 0 756.3 0 698.2 0C640 0 582 0 523.8 0C465.7 0 407.3 0 349.2 0C291 0 233 0 174.8 0C116.7 0 58.3 0 29.2 0L0 0Z" fill="#00b9f0"></path><path d="M0 25L29.2 25.3C58.3 25.7 116.7 26.3 174.8 28.3C233 30.3 291 33.7 349.2 34.5C407.3 35.3 465.7 33.7 523.8 34.3C582 35 640 38 698.2 37.2C756.3 36.3 814.7 31.7 872.8 30.8C931 30 989 33 1047.2 34.3C1105.3 35.7 1163.7 35.3 1221.8 35.5C1280 35.7 1338 36.3 1396.2 36.7C1454.3 37 1512.7 37 1570.8 34C1629 31 1687 25 1745.2 24.2C1803.3 23.3 1861.7 27.7 1890.8 29.8L1920 32L1920 0L1890.8 0C1861.7 0 1803.3 0 1745.2 0C1687 0 1629 0 1570.8 0C1512.7 0 1454.3 0 1396.2 0C1338 0 1280 0 1221.8 0C1163.7 0 1105.3 0 1047.2 0C989 0 931 0 872.8 0C814.7 0 756.3 0 698.2 0C640 0 582 0 523.8 0C465.7 0 407.3 0 349.2 0C291 0 233 0 174.8 0C116.7 0 58.3 0 29.2 0L0 0Z" fill="#00a1f9"></path><path d="M0 17L29.2 18.2C58.3 19.3 116.7 21.7 174.8 21.2C233 20.7 291 17.3 349.2 14.8C407.3 12.3 465.7 10.7 523.8 11.7C582 12.7 640 16.3 698.2 15.8C756.3 15.3 814.7 10.7 872.8 11.2C931 11.7 989 17.3 1047.2 18C1105.3 18.7 1163.7 14.3 1221.8 14.3C1280 14.3 1338 18.7 1396.2 20.8C1454.3 23 1512.7 23 1570.8 21C1629 19 1687 15 1745.2 13.7C1803.3 12.3 1861.7 13.7 1890.8 14.3L1920 15L1920 0L1890.8 0C1861.7 0 1803.3 0 1745.2 0C1687 0 1629 0 1570.8 0C1512.7 0 1454.3 0 1396.2 0C1338 0 1280 0 1221.8 0C1163.7 0 1105.3 0 1047.2 0C989 0 931 0 872.8 0C814.7 0 756.3 0 698.2 0C640 0 582 0 523.8 0C465.7 0 407.3 0 349.2 0C291 0 233 0 174.8 0C116.7 0 58.3 0 29.2 0L0 0Z" fill="#3b82f6"></path></svg>