<svg id="visual" viewBox="0 0 960 300" width="960" height="300" xmlns="http://www.w3.org/2000/svg" xmlns:xlink="http://www.w3.org/1999/xlink" version="1.1"><path d="M0 42L22.8 44.3C45.7 46.7 91.3 51.3 137 49.8C182.7 48.3 228.3 40.7 274 40C319.7 39.3 365.3 45.7 411.2 49.3C457 53 503 54 548.8 52.3C594.7 50.7 640.3 46.3 686 46.3C731.7 46.3 777.3 50.7 823 50.3C868.7 50 914.3 45 937.2 42.5L960 40L960 0L937.2 0C914.3 0 868.7 0 823 0C777.3 0 731.7 0 686 0C640.3 0 594.7 0 548.8 0C503 0 457 0 411.2 0C365.3 0 319.7 0 274 0C228.3 0 182.7 0 137 0C91.3 0 45.7 0 22.8 0L0 0Z" fill="#58dabe"></path><path d="M0 23L22.8 24.3C45.7 25.7 91.3 28.3 137 30.7C182.7 33 228.3 35 274 37.8C319.7 40.7 365.3 44.3 411.2 43.3C457 42.3 503 36.7 548.8 36.2C594.7 35.7 640.3 40.3 686 39.5C731.7 38.7 777.3 32.3 823 31.8C868.7 31.3 914.3 36.7 937.2 39.3L960 42L960 0L937.2 0C914.3 0 868.7 0 823 0C777.3 0 731.7 0 686 0C640.3 0 594.7 0 548.8 0C503 0 457 0 411.2 0C365.3 0 319.7 0 274 0C228.3 0 182.7 0 137 0C91.3 0 45.7 0 22.8 0L0 0Z" fill="#00cae4"></path><path d="M0 12L22.8 16C45.7 20 91.3 28 137 32.2C182.7 36.3 228.3 36.7 274 35C319.7 33.3 365.3 29.7 411.2 27.2C457 24.7 503 23.3 548.8 25.2C594.7 27 640.3 32 686 30.3C731.7 28.7 777.3 20.3 823 19.3C868.7 18.3 914.3 24.7 937.2 27.8L960 31L960 0L937.2 0C914.3 0 868.7 0 823 0C777.3 0 731.7 0 686 0C640.3 0 594.7 0 548.8 0C503 0 457 0 411.2 0C365.3 0 319.7 0 274 0C228.3 0 182.7 0 137 0C91.3 0 45.7 0 22.8 0L0 0Z" fill="#00b1f9"></path><path d="M0 23L22.8 23.5C45.7 24 91.3 25 137 23.8C182.7 22.7 228.3 19.3 274 16.2C319.7 13 365.3 10 411.2 9.8C457 9.7 503 12.3 548.8 12.7C594.7 13 640.3 11 686 13C731.7 15 777.3 21 823 22.8C868.7 24.7 914.3 22.3 937.2 21.2L960 20L960 0L937.2 0C914.3 0 868.7 0 823 0C777.3 0 731.7 0 686 0C640.3 0 594.7 0 548.8 0C503 0 457 0 411.2 0C365.3 0 319.7 0 274 0C228.3 0 182.7 0 137 0C91.3 0 45.7 0 22.8 0L0 0Z" fill="#0090ff"></path><path d="M0 12L22.8 12C45.7 12 91.3 12 137 10C182.7 8 228.3 4 274 4.5C319.7 5 365.3 10 411.2 13.2C457 16.3 503 17.7 548.8 15.8C594.7 14 640.3 9 686 6.8C731.7 4.7 777.3 5.3 823 5.2C868.7 5 914.3 4 937.2 3.5L960 3L960 0L937.2 0C914.3 0 868.7 0 823 0C777.3 0 731.7 0 686 0C640.3 0 594.7 0 548.8 0C503 0 457 0 411.2 0C365.3 0 319.7 0 274 0C228.3 0 182.7 0 137 0C91.3 0 45.7 0 22.8 0L0 0Z" fill="#0066ff"></path></svg>