<svg id="visual" viewBox="0 0 960 75" width="960" height="75" xmlns="http://www.w3.org/2000/svg" xmlns:xlink="http://www.w3.org/1999/xlink" version="1.1"><path d="M0 49L16 49.5C32 50 64 51 96 52.8C128 54.7 160 57.3 192 60.5C224 63.7 256 67.3 288 66.3C320 65.3 352 59.7 384 57.8C416 56 448 58 480 58.7C512 59.3 544 58.7 576 60.8C608 63 640 68 672 69.2C704 70.3 736 67.7 768 65C800 62.3 832 59.7 864 57C896 54.3 928 51.7 944 50.3L960 49L960 0L944 0C928 0 896 0 864 0C832 0 800 0 768 0C736 0 704 0 672 0C640 0 608 0 576 0C544 0 512 0 480 0C448 0 416 0 384 0C352 0 320 0 288 0C256 0 224 0 192 0C160 0 128 0 96 0C64 0 32 0 16 0L0 0Z" fill="#fe6a5d"></path><path d="M0 53L16 51.2C32 49.3 64 45.7 96 45.3C128 45 160 48 192 48.3C224 48.7 256 46.3 288 44.3C320 42.3 352 40.7 384 40.5C416 40.3 448 41.7 480 41.5C512 41.3 544 39.7 576 42.2C608 44.7 640 51.3 672 53.5C704 55.7 736 53.3 768 50C800 46.7 832 42.3 864 42.2C896 42 928 46 944 48L960 50L960 0L944 0C928 0 896 0 864 0C832 0 800 0 768 0C736 0 704 0 672 0C640 0 608 0 576 0C544 0 512 0 480 0C448 0 416 0 384 0C352 0 320 0 288 0C256 0 224 0 192 0C160 0 128 0 96 0C64 0 32 0 16 0L0 0Z" fill="#fe5b90"></path><path d="M0 41L16 38.2C32 35.3 64 29.7 96 27.7C128 25.7 160 27.3 192 31.2C224 35 256 41 288 42C320 43 352 39 384 38C416 37 448 39 480 40.5C512 42 544 43 576 41.8C608 40.7 640 37.3 672 37C704 36.7 736 39.3 768 39.8C800 40.3 832 38.7 864 36.7C896 34.7 928 32.3 944 31.2L960 30L960 0L944 0C928 0 896 0 864 0C832 0 800 0 768 0C736 0 704 0 672 0C640 0 608 0 576 0C544 0 512 0 480 0C448 0 416 0 384 0C352 0 320 0 288 0C256 0 224 0 192 0C160 0 128 0 96 0C64 0 32 0 16 0L0 0Z" fill="#e264c4"></path><path d="M0 28L16 27.5C32 27 64 26 96 24.5C128 23 160 21 192 19.3C224 17.7 256 16.3 288 19C320 21.7 352 28.3 384 28.8C416 29.3 448 23.7 480 19.8C512 16 544 14 576 13.7C608 13.3 640 14.7 672 18.3C704 22 736 28 768 30.2C800 32.3 832 30.7 864 30.5C896 30.3 928 31.7 944 32.3L960 33L960 0L944 0C928 0 896 0 864 0C832 0 800 0 768 0C736 0 704 0 672 0C640 0 608 0 576 0C544 0 512 0 480 0C448 0 416 0 384 0C352 0 320 0 288 0C256 0 224 0 192 0C160 0 128 0 96 0C64 0 32 0 16 0L0 0Z" fill="#a47aed"></path><path d="M0 15L16 13.3C32 11.7 64 8.3 96 6.3C128 4.3 160 3.7 192 3.7C224 3.7 256 4.3 288 5.8C320 7.3 352 9.7 384 10.5C416 11.3 448 10.7 480 12.2C512 13.7 544 17.3 576 18.2C608 19 640 17 672 13.8C704 10.7 736 6.3 768 6C800 5.7 832 9.3 864 11.3C896 13.3 928 13.7 944 13.8L960 14L960 0L944 0C928 0 896 0 864 0C832 0 800 0 768 0C736 0 704 0 672 0C640 0 608 0 576 0C544 0 512 0 480 0C448 0 416 0 384 0C352 0 320 0 288 0C256 0 224 0 192 0C160 0 128 0 96 0C64 0 32 0 16 0L0 0Z" fill="#008eff"></path></svg>